<svg width="5" height="10" viewBox="0 0 5 10" fill="none" xmlns="http://www.w3.org/2000/svg">
<path d="M0 10C0.906264 10 1.74145 9.77788 2.51 9.32919C3.27854 8.8805 3.88272 8.27632 4.32697 7.50777C4.77121 6.73923 4.99778 5.90404 4.99778 4.99778C4.99778 4.09152 4.77566 3.25633 4.32697 2.48778C3.87828 1.71924 3.2741 1.11506 2.51 0.670813C1.74589 0.226566 0.906264 0 0 0C0.759662 0.559751 1.31941 1.28832 1.67925 2.18125C2.03909 3.07419 2.21679 4.01599 2.21679 4.99334C2.21679 5.39316 2.20346 5.76188 2.17237 6.10395C2.14127 6.44602 2.07908 6.81031 1.98134 7.20124C1.88361 7.59218 1.75478 7.94758 1.59929 8.26744C1.4438 8.58729 1.23056 8.89827 0.955131 9.20924C0.679698 9.52021 0.364283 9.77788 0 10Z" fill="white"/>
</svg>
