<svg width="10" height="10" viewBox="0 0 10 10" fill="none" xmlns="http://www.w3.org/2000/svg">
<path d="M0 4.9953C0 4.88241 0.0376294 4.78363 0.117592 4.70367C0.197554 4.62841 0.296331 4.59078 0.399812 4.59078H1.35936C1.46754 4.59078 1.55691 4.62841 1.63217 4.70837C1.70273 4.78834 1.74036 4.88241 1.74036 4.9953C1.74036 5.10818 1.70743 5.20226 1.63688 5.28222C1.56632 5.36218 1.47225 5.39981 1.36406 5.39981H0.404516C0.296331 5.39981 0.202258 5.36218 0.122295 5.28222C0.0423331 5.20226 0 5.10818 0 4.9953ZM1.34525 8.25494C1.34525 8.14675 1.38288 8.05268 1.45343 7.96802L2.14487 7.29539C2.21543 7.22013 2.3095 7.18721 2.42239 7.18721C2.53528 7.18721 2.62935 7.22484 2.70461 7.29539C2.77987 7.36595 2.8175 7.45532 2.8175 7.5635C2.8175 7.67639 2.77987 7.77987 2.70461 7.86453L2.03669 8.53246C1.84384 8.68297 1.65099 8.68297 1.45814 8.53246C1.38288 8.4572 1.34525 8.36312 1.34525 8.25494ZM1.34525 1.74506C1.34525 1.63688 1.38288 1.5428 1.45343 1.45814C1.54751 1.37817 1.64628 1.34055 1.75447 1.34055C1.85795 1.34055 1.95202 1.37818 2.03198 1.45343L2.70461 2.14487C2.77987 2.21543 2.8175 2.3095 2.8175 2.42239C2.8175 2.53528 2.77987 2.62935 2.70461 2.70461C2.62935 2.77987 2.53528 2.8175 2.42239 2.8175C2.3095 2.8175 2.21543 2.77987 2.14487 2.70461L1.45814 2.03198C1.38288 1.95673 1.34525 1.85795 1.34525 1.74506ZM2.54468 4.9953C2.54468 4.55786 2.65287 4.14864 2.87394 3.77234C3.09501 3.39605 3.39135 3.09501 3.77234 2.87394C4.15334 2.65287 4.55786 2.54468 4.9953 2.54468C5.32455 2.54468 5.6397 2.61054 5.94544 2.74224C6.24647 2.87394 6.50988 3.04798 6.72625 3.26905C6.94732 3.49012 7.12136 3.74882 7.24835 4.04986C7.37535 4.35089 7.4412 4.67074 7.4412 5C7.4412 5.44214 7.33302 5.85136 7.11195 6.22766C6.89087 6.60395 6.59454 6.90028 6.21825 7.12135C5.84196 7.34243 5.43274 7.45061 4.99059 7.45061C4.54845 7.45061 4.13923 7.34243 3.76294 7.12135C3.38664 6.90028 3.09031 6.60395 2.86924 6.22766C2.65757 5.84666 2.54468 5.43744 2.54468 4.9953ZM3.34431 4.9953C3.34431 5.45626 3.50423 5.84666 3.82879 6.17121C4.14864 6.49577 4.53904 6.6604 5 6.6604C5.46096 6.6604 5.85136 6.49577 6.17592 6.17121C6.50047 5.84666 6.6651 5.45626 6.6651 4.9953C6.6651 4.54374 6.50047 4.15804 6.17592 3.83349C5.85136 3.51364 5.46096 3.35372 5 3.35372C4.54374 3.35372 4.15334 3.51364 3.83349 3.83349C3.50423 4.15804 3.34431 4.54374 3.34431 4.9953ZM4.59548 8.65475C4.59548 8.54186 4.63311 8.44779 4.71308 8.37253C4.79304 8.29727 4.88711 8.25964 4.9953 8.25964C5.10818 8.25964 5.20696 8.29727 5.28222 8.37253C5.35748 8.44779 5.39511 8.54186 5.39511 8.65475V9.59078C5.39511 9.70367 5.35748 9.80245 5.27752 9.88241C5.19755 9.96237 5.10348 10 4.9953 10C4.88711 10 4.78834 9.96237 4.71308 9.88241C4.63311 9.80245 4.59548 9.70367 4.59548 9.59078V8.65475ZM4.59548 1.36406V0.404516C4.59548 0.296331 4.63311 0.202258 4.71308 0.122295C4.79304 0.0423331 4.88711 0 5 0C5.11289 0 5.20226 0.0376294 5.28222 0.117592C5.36218 0.197554 5.39981 0.291627 5.39981 0.399812V1.36406C5.39981 1.47225 5.36218 1.56162 5.28222 1.63688C5.20226 1.71214 5.10818 1.74506 5 1.74506C4.89182 1.74506 4.79304 1.70743 4.71778 1.63688C4.64252 1.56632 4.59548 1.47225 4.59548 1.36406ZM7.19191 7.5635C7.19191 7.45532 7.22954 7.36595 7.30009 7.30009C7.37065 7.22484 7.46002 7.19191 7.5635 7.19191C7.67639 7.19191 7.77046 7.22954 7.84572 7.30009L8.53246 7.97272C8.60771 8.05268 8.64534 8.15146 8.64534 8.25964C8.64534 8.36783 8.60771 8.4619 8.53246 8.53716C8.34431 8.68297 8.15616 8.68297 7.96801 8.53716L7.30009 7.86924C7.22954 7.78457 7.19191 7.68579 7.19191 7.5635ZM7.19191 2.42709C7.19191 2.3095 7.22954 2.21543 7.30009 2.14958L7.96801 1.45814C8.04798 1.38288 8.14205 1.34525 8.24553 1.34525C8.35842 1.34525 8.45249 1.38288 8.52775 1.46284C8.60771 1.5428 8.64534 1.63688 8.64534 1.74506C8.64534 1.86265 8.60771 1.96143 8.53246 2.03669L7.84572 2.70931C7.76105 2.78457 7.66698 2.8222 7.5635 2.8222C7.45532 2.8222 7.37065 2.78457 7.30009 2.70931C7.22954 2.63405 7.19191 2.53998 7.19191 2.42709ZM8.25494 4.9953C8.25494 4.88241 8.29257 4.78833 8.36783 4.70367C8.44309 4.62841 8.53246 4.59078 8.63594 4.59078H9.58608C9.69426 4.59078 9.78833 4.63311 9.8683 4.71308C9.94826 4.79304 9.99059 4.88711 9.99059 4.9953C9.99059 5.10348 9.94826 5.19755 9.8683 5.27752C9.78833 5.35748 9.69426 5.39511 9.58608 5.39511H8.63594C8.52775 5.39511 8.43368 5.35748 8.36312 5.27752C8.29257 5.19755 8.25494 5.10818 8.25494 4.9953Z" fill="black"/>
</svg>
