<svg width="25" height="25" viewBox="0 0 25 25" fill="none" xmlns="http://www.w3.org/2000/svg">
<g clip-path="url(#clip0_176_73)">
<path d="M24.8761 16.5287L22.0756 10.2274L24.9005 3.87106C25.0568 3.51954 25.0246 3.1129 24.8149 2.79034C24.6053 2.46778 24.2468 2.27325 23.8622 2.27325H13.6356V1.13702C13.6356 0.509475 13.1268 0.000732425 12.4993 0.000732425H1.13628C0.508742 0.000683597 0 0.509475 0 1.13702V1.89454V14.7726V23.8629C0 24.4904 0.508742 24.9992 1.13628 24.9992C1.76383 24.9992 2.27257 24.4904 2.27257 23.8629V15.9089H11.3629V17.0451C11.3629 17.6726 11.8717 18.1814 12.4992 18.1814H23.8622C23.8625 18.1814 23.8632 18.1814 23.8637 18.1814C24.4911 18.1814 25 17.6726 25 17.0451C25 16.8591 24.9553 16.6836 24.8761 16.5287Z" fill="#39529D"/>
</g>
<defs>
<clipPath id="clip0_176_73">
<rect width="25" height="25" fill="white"/>
</clipPath>
</defs>
</svg>
