<svg width="21" height="25" viewBox="0 0 21 25" fill="none" xmlns="http://www.w3.org/2000/svg">
<g clip-path="url(#clip0_176_77)">
<path d="M16.7951 16.6661C15.9632 16.6601 15.1491 16.9081 14.46 17.3775L8.20151 13.2127C8.25014 12.9619 8.27551 12.7071 8.27731 12.4516C8.27671 12.1963 8.25344 11.9416 8.20777 11.6904L14.5115 7.59566C15.2723 8.12356 16.1868 8.3798 17.1091 8.32356C18.0314 8.26733 18.9085 7.90184 19.6006 7.28536C20.2926 6.66887 20.7598 5.83687 20.9277 4.92195C21.0956 4.00704 20.9545 3.06186 20.5269 2.23707C20.0993 1.41228 19.4099 0.755342 18.5684 0.370957C17.7269 -0.0134284 16.7819 -0.103137 15.8839 0.116129C14.986 0.335394 14.1867 0.851016 13.6136 1.58081C13.0404 2.31061 12.7264 3.21258 12.7215 4.14297C12.7221 4.39825 12.7454 4.65298 12.7911 4.90409L6.48599 9.00027C5.86664 8.5703 5.14257 8.31853 4.39171 8.27204C3.64084 8.22556 2.89159 8.38612 2.2246 8.73645C1.5576 9.08678 0.998102 9.61362 0.606306 10.2603C0.21451 10.9069 0.00524907 11.6489 0.00104129 12.4064C-0.00316648 13.1639 0.197839 13.9082 0.582426 14.5592C0.967014 15.2102 1.52062 15.7433 2.18369 16.1012C2.84675 16.459 3.59416 16.628 4.3455 16.5899C5.09684 16.5519 5.82365 16.3083 6.44774 15.8854L12.7097 20.048C12.6598 20.2987 12.634 20.5536 12.6325 20.8092C12.6281 21.6331 12.8665 22.4398 13.3174 23.1274C13.7683 23.8149 14.4116 24.3524 15.1658 24.6718C15.9201 24.9913 16.7515 25.0784 17.5549 24.9221C18.3583 24.7658 19.0976 24.3731 19.6794 23.7937C20.2612 23.2144 20.6594 22.4743 20.8235 21.6671C20.9876 20.8599 20.9104 20.0219 20.6015 19.2589C20.2926 18.4959 19.766 17.8423 19.0882 17.3806C18.4105 16.919 17.612 16.6701 16.7937 16.6654" fill="#39529D"/>
</g>
<defs>
<clipPath id="clip0_176_77">
<rect width="21" height="25" fill="white"/>
</clipPath>
</defs>
</svg>
