<?xml version="1.0" encoding="UTF-8" standalone="no"?>
<!-- Created with Inkscape (http://www.inkscape.org/) -->

<svg
   width="120"
   height="120"
   viewBox="0 0 120 120"
   version="1.1"
   id="svg5"
   inkscape:version="1.2.2 (732a01da63, 2022-12-09)"
   sodipodi:docname="Final.svg"
   inkscape:export-filename="logo 2.png"
   inkscape:export-xdpi="300"
   inkscape:export-ydpi="300"
   xmlns:inkscape="http://www.inkscape.org/namespaces/inkscape"
   xmlns:sodipodi="http://sodipodi.sourceforge.net/DTD/sodipodi-0.dtd"
   xmlns:xlink="http://www.w3.org/1999/xlink"
   xmlns="http://www.w3.org/2000/svg"
   xmlns:svg="http://www.w3.org/2000/svg">
  <sodipodi:namedview
     id="namedview7"
     pagecolor="#ffffff"
     bordercolor="#000000"
     borderopacity="0.25"
     inkscape:showpageshadow="2"
     inkscape:pageopacity="0.0"
     inkscape:pagecheckerboard="0"
     inkscape:deskcolor="#d1d1d1"
     inkscape:document-units="px"
     showgrid="false"
     inkscape:zoom="3.306798"
     inkscape:cx="37.800918"
     inkscape:cy="68.797671"
     inkscape:window-width="1218"
     inkscape:window-height="778"
     inkscape:window-x="-16000"
     inkscape:window-y="-16000"
     inkscape:window-maximized="0"
     inkscape:current-layer="g10830" />
  <defs
     id="defs2">
    <linearGradient
       inkscape:collect="always"
       id="linearGradient7053">
      <stop
         style="stop-color:#39529d;stop-opacity:1;"
         offset="0"
         id="stop7049" />
      <stop
         style="stop-color:#1b274b;stop-opacity:1;"
         offset="1"
         id="stop7051" />
    </linearGradient>
    <clipPath
       clipPathUnits="userSpaceOnUse"
       id="clipPath22838">
      <rect
         style="fill:#99b4e6;fill-opacity:1;stroke-width:0.874546"
         id="rect22840"
         width="104.94556"
         height="104.94556"
         x="16.973547"
         y="6.3561425" />
    </clipPath>
    <linearGradient
       inkscape:collect="always"
       xlink:href="#linearGradient7053"
       id="linearGradient7055"
       x1="0"
       y1="60"
       x2="120"
       y2="60"
       gradientUnits="userSpaceOnUse" />
  </defs>
  <g
     inkscape:label="Layer 1"
     inkscape:groupmode="layer"
     id="layer1">
    <rect
       style="fill:url(#linearGradient7055);fill-opacity:1"
       id="rect6355"
       width="120"
       height="120"
       x="0"
       y="0" />
    <g
       id="g10830"
       transform="matrix(1.14345,0,0,1.14345,-19.408403,-7.2679312)"
       clip-path="url(#clipPath22838)"
       style="display:none;fill:#000000;fill-opacity:0.1">
      <g
         id="g13509"
         transform="translate(-3.7563552,-0.40007019)"
         style="fill:#000000;fill-opacity:0.1">
        <g
           id="g22725"
           transform="rotate(45,121.47475,213.18999)"
           style="fill:#000000;fill-opacity:0.1">
          <g
             id="g22799"
             transform="rotate(90,87.341243,104.32313)"
             style="fill:#000000;fill-opacity:0.1" />
        </g>
      </g>
      <rect
         style="fill:#000000;fill-opacity:0.1;stroke:none;stroke-width:0.890649;stroke-linecap:round;stroke-linejoin:round;stroke-dasharray:none;stroke-opacity:0.333333"
         id="rect22429"
         width="249.82912"
         height="8.8922224"
         x="-3.4398117"
         y="133.36453"
         ry="0"
         rx="0"
         transform="rotate(135,127.42976,125.23402)" />
      <rect
         style="fill:#000000;fill-opacity:0.1;stroke:none;stroke-width:0.890649;stroke-linecap:round;stroke-linejoin:round;stroke-dasharray:none;stroke-opacity:0.333333"
         id="rect22429-5"
         width="249.82912"
         height="8.8922224"
         x="-3.4398117"
         y="150.11549"
         ry="0"
         rx="0"
         transform="rotate(135,127.42976,125.23402)" />
      <rect
         style="fill:#000000;fill-opacity:0.1;stroke:none;stroke-width:0.890649;stroke-linecap:round;stroke-linejoin:round;stroke-dasharray:none;stroke-opacity:0.333333"
         id="rect22429-8"
         width="249.82912"
         height="8.8922224"
         x="-3.4398117"
         y="166.86647"
         ry="0"
         rx="0"
         transform="rotate(135,127.42976,125.23402)" />
      <rect
         style="fill:#000000;fill-opacity:0.1;stroke:none;stroke-width:0.890649;stroke-linecap:round;stroke-linejoin:round;stroke-dasharray:none;stroke-opacity:0.333333"
         id="rect22429-54"
         width="249.82912"
         height="8.8922224"
         x="-3.4398117"
         y="183.61743"
         ry="0"
         rx="0"
         transform="rotate(135,127.42976,125.23402)" />
      <rect
         style="fill:#000000;fill-opacity:0.1;stroke:none;stroke-width:0.890649;stroke-linecap:round;stroke-linejoin:round;stroke-dasharray:none;stroke-opacity:0.333333"
         id="rect22429-1"
         width="249.82912"
         height="8.8922224"
         x="-3.4398117"
         y="200.36839"
         ry="0"
         rx="0"
         transform="rotate(135,127.42976,125.23402)" />
      <rect
         style="fill:#000000;fill-opacity:0.1;stroke:none;stroke-width:0.890649;stroke-linecap:round;stroke-linejoin:round;stroke-dasharray:none;stroke-opacity:0.333333"
         id="rect22429-10"
         width="249.82912"
         height="8.8922224"
         x="-3.4398117"
         y="217.11937"
         ry="0"
         rx="0"
         transform="rotate(135,127.42976,125.23402)" />
      <rect
         style="fill:#000000;fill-opacity:0.1;stroke:none;stroke-width:0.890649;stroke-linecap:round;stroke-linejoin:round;stroke-dasharray:none;stroke-opacity:0.333333"
         id="rect22429-627"
         width="249.82912"
         height="8.8922224"
         x="-3.4398117"
         y="233.87033"
         ry="0"
         rx="0"
         transform="rotate(135,127.42976,125.23402)" />
      <rect
         style="fill:#000000;fill-opacity:0.1;stroke:none;stroke-width:0.890649;stroke-linecap:round;stroke-linejoin:round;stroke-dasharray:none;stroke-opacity:0.333333"
         id="rect22429-65"
         width="249.82912"
         height="8.8922224"
         x="-3.4398117"
         y="250.62129"
         ry="0"
         rx="0"
         transform="rotate(135,127.42976,125.23402)" />
      <rect
         style="fill:#000000;fill-opacity:0.1;stroke:none;stroke-width:0.890649;stroke-linecap:round;stroke-linejoin:round;stroke-dasharray:none;stroke-opacity:0.333333"
         id="rect22429-04"
         width="249.82912"
         height="8.8922224"
         x="-3.4398117"
         y="267.37225"
         ry="0"
         rx="0"
         transform="rotate(135,127.42976,125.23402)" />
      <rect
         style="fill:#000000;fill-opacity:0.1;stroke:none;stroke-width:0.890649;stroke-linecap:round;stroke-linejoin:round;stroke-dasharray:none;stroke-opacity:0.333333"
         id="rect22429-68"
         width="249.82912"
         height="8.8922224"
         x="-3.4398117"
         y="284.12323"
         ry="0"
         rx="0"
         transform="rotate(135,127.42976,125.23402)" />
    </g>
    <g
       id="g24436"
       transform="translate(-0.60976362,91.933594)"
       style="display:inline">
      <g
         id="g24440"
         transform="translate(-2.7808104)">
        <path
           id="path12172"
           style="display:inline;fill:#1b274b;fill-opacity:1;stroke:none;stroke-width:0.71787;stroke-dasharray:none;stroke-opacity:1"
           d="m 66.550697,-39.598025 c -10.91388,0 -19.700733,8.786848 -19.700733,19.700732 v 6.565976 19.9124477 c 0,3.6379813 2.929395,6.5673753 6.567379,6.5673753 3.637982,0 6.567377,-2.929394 6.567377,-6.5673753 V -1.315428 -20.554871 c 0,-3.637989 2.927992,-6.56738 6.565977,-6.56738 3.637987,0 6.567378,2.929391 6.567378,6.56738 v 0.657578 6.565976 12.015889 7.8965587 0.6575771 c 0,3.6379842 2.927984,6.5659752 6.565976,6.5659752 3.637973,0 6.567377,-2.927991 6.567377,-6.5659752 V 6.6077676 c 3.6e-5,-0.00885 0.0013,-0.017706 0.0013,-0.026641 V -1.3154238 -20.554868 c 0,-3.637987 2.927988,-6.56738 6.565975,-6.56738 3.637987,0 6.567379,2.929393 6.567379,6.56738 v 19.2394442 7.8965565 0.6575792 c 0,3.6379841 2.927968,6.5659751 6.565968,6.5659751 3.63797,0 6.56738,-2.927991 6.56738,-6.5659751 V -20.554871 c 0,-0.296139 -0.0269,-0.585159 -0.0645,-0.870699 -0.77545,-10.193898 -9.23702,-18.172455 -19.636221,-18.172455 -5.057063,0 -9.656412,1.88927 -13.13756,4.999845 -3.479661,-3.109753 -8.074422,-4.999845 -13.130547,-4.999845 z"
           sodipodi:nodetypes="sscssscsssccccssscscsssccsssscscs"
           transform="translate(1.0000011,1.5)" />
        <path
           id="path10657"
           style="fill:#99b4e6;fill-opacity:1;stroke:none;stroke-width:0.71787;stroke-dasharray:none;stroke-opacity:1"
           d="m 66.550697,-39.598025 c -10.91388,0 -19.700733,8.786848 -19.700733,19.700732 v 6.565976 19.9124477 c 0,3.6379813 2.929395,6.5673753 6.567379,6.5673753 3.637982,0 6.567377,-2.929394 6.567377,-6.5673753 V -1.315428 -20.554871 c 0,-3.637989 2.927992,-6.56738 6.565977,-6.56738 3.637987,0 6.567378,2.929391 6.567378,6.56738 v 0.657578 6.565976 12.015889 7.8965587 0.6575771 c 0,3.6379842 2.927984,6.5659752 6.565976,6.5659752 3.637973,0 6.567377,-2.927991 6.567377,-6.5659752 V 6.6077676 c 3.6e-5,-0.00885 0.0013,-0.017706 0.0013,-0.026641 V -1.3154238 -20.554868 c 0,-3.637987 2.927988,-6.56738 6.565975,-6.56738 3.637987,0 6.567379,2.929393 6.567379,6.56738 v 19.2394442 7.8965565 0.6575792 c 0,3.6379841 2.927968,6.5659751 6.565968,6.5659751 3.63797,0 6.56738,-2.927991 6.56738,-6.5659751 V -20.554871 c 0,-0.296139 -0.0269,-0.585159 -0.0645,-0.870699 -0.77545,-10.193898 -9.23702,-18.172455 -19.636221,-18.172455 -5.057063,0 -9.656412,1.88927 -13.13756,4.999845 -3.479661,-3.109753 -8.074422,-4.999845 -13.130547,-4.999845 z"
           sodipodi:nodetypes="sscssscsssccccssscscsssccsssscscs" />
        <path
           id="path12174"
           style="display:inline;fill:#1b274b;fill-opacity:1;stroke:none;stroke-width:1;stroke-linecap:round;stroke-linejoin:round;stroke-dasharray:none;stroke-opacity:0.333333"
           d="m 24.410158,-76.171876 c -5.067762,0 -9.148439,4.078724 -9.148439,9.146486 V -48.728515 6.15625 c 0,5.067761 4.080677,9.148437 9.148439,9.148437 5.06776,0 9.146484,-4.080676 9.146484,-9.148437 v -29.000001 c 2.859688,1.004951 5.936781,1.556642 9.148437,1.556642 15.203186,0 27.44336,-12.238221 27.44336,-27.441406 0,-15.203188 -12.240174,-27.443361 -27.44336,-27.443361 -4.243789,0 -8.255759,0.954562 -11.835937,2.660157 -1.652269,-1.644802 -3.932593,-2.660157 -6.458984,-2.660157 z m 18.294921,18.294923 c 5.067765,0 9.146485,4.080672 9.146485,9.148438 0,5.067764 -4.07872,9.146484 -9.146485,9.146484 -5.067765,0 -9.148437,-4.07872 -9.148437,-9.146484 0,-5.067766 4.080672,-9.148438 9.148437,-9.148438 z" />
        <path
           id="rect8069"
           style="fill:#ffffff;fill-opacity:1;stroke:none;stroke-width:1;stroke-linecap:round;stroke-linejoin:round;stroke-dasharray:none;stroke-opacity:0.333333"
           d="m 23.410157,-77.671876 c -5.067762,0 -9.148439,4.078724 -9.148439,9.146486 V -50.228515 4.65625 c 0,5.0677612 4.080677,9.148437 9.148439,9.148437 5.06776,0 9.146484,-4.0806758 9.146484,-9.148437 v -29.000001 c 2.859688,1.004951 5.936781,1.556642 9.148437,1.556642 15.203186,0 27.44336,-12.238221 27.44336,-27.441406 0,-15.203188 -12.240174,-27.443361 -27.44336,-27.443361 -4.243789,0 -8.255759,0.954562 -11.835937,2.660157 -1.652269,-1.644802 -3.932593,-2.660157 -6.458984,-2.660157 z m 18.294921,18.294923 c 5.067765,0 9.146485,4.080672 9.146485,9.148438 0,5.067764 -4.07872,9.146484 -9.146485,9.146484 -5.067765,0 -9.148437,-4.07872 -9.148437,-9.146484 0,-5.067766 4.080672,-9.148438 9.148437,-9.148438 z" />
      </g>
    </g>
  </g>
</svg>
